<svg width="1364" height="402" viewBox="0 0 1364 402" fill="none" xmlns="http://www.w3.org/2000/svg">
<path d="M0 40.142L69.311 0L139.522 40.142L69.757 80.652L0 40.142Z" fill="url(#paint0_linear_5513_149722)"/>
<path d="M69.7571 161.297L139.521 120.794L208.648 161.297L139.202 201.311L69.7571 161.297Z" fill="url(#paint1_linear_5513_149722)"/>
<path d="M69.757 321.701L139.202 282.098L69.757 241.411L0.539062 281.552L69.757 321.701Z" fill="url(#paint2_linear_5513_149722)"/>
<path d="M69.7571 80.6521L139.521 40.1421V120.794L69.7571 161.298V80.6521Z" fill="url(#paint3_linear_5513_149722)"/>
<path d="M139.202 201.312V282.098L69.7571 321.701V401.631L208.648 321.701V161.297L139.202 201.312Z" fill="url(#paint4_linear_5513_149722)"/>
<path d="M69.757 401.631V321.702L0.539062 281.553V362.028L69.757 401.631Z" fill="url(#paint5_linear_5513_149722)"/>
<path d="M0 40.1421L69.757 80.6521V161.298L139.203 201.312V282.099L0 201.276V40.1421Z" fill="url(#paint6_linear_5513_149722)"/>
<path d="M391.5 211.75C404.75 203.5 413.5 189.5 413.5 174C413.5 148 390.75 129.25 359.75 129.25H280.75V304.25H361.5C393.75 304.25 418.25 282.75 418.25 254.25C418.25 235.25 408 219.5 391.5 211.75ZM367.75 182C367.75 191 361.5 197.25 351.5 197.25H327V166.75H351.5C361.5 166.75 367.75 172.75 367.75 182ZM353.25 264.5H327V232.75H353.25C363.75 232.75 370.5 239.25 370.5 248.5C370.5 258 363.75 264.5 353.25 264.5ZM506.092 308.5C546.092 308.5 572.592 284 572.592 246.25V169H526.092V244.25C526.092 258.25 518.592 266.75 506.092 266.75C493.842 266.75 486.092 258.5 486.092 244.25V169H439.592V246.25C439.592 284 466.342 308.5 506.092 308.5ZM600.283 152.25H646.283V112.75H600.283V152.25ZM600.033 304H646.533V169H600.033V304ZM675.717 304H722.22V120.25H675.717V304ZM847.9 120.25V174C838.4 168 826.9 164.75 814.4 164.75C773.15 164.75 743.65 194.75 743.65 236.5C743.65 278.5 773.15 308.75 814.4 308.75C830.15 308.75 844.15 303.25 855.15 294L859.65 304H893.9V120.25H847.9ZM820.65 267.5C803.4 267.5 790.4 254.25 790.4 236.75C790.4 219 803.4 205.75 820.65 205.75C838.15 205.75 850.9 219 850.9 236.75C850.9 254.25 838.15 267.5 820.65 267.5ZM1062.03 235.25C1062.03 195.75 1032.03 164.75 988.53 164.75C946.03 164.75 915.28 195.25 915.28 236.5C915.28 277.75 946.28 308.5 988.53 308.5C1022.28 308.5 1049.78 289.25 1059.28 258.5H1012.78C1008.53 266.5 999.28 271.25 988.53 271.25C973.78 271.25 964.03 263.25 961.03 247.75H1061.28C1061.78 243.5 1062.03 239.5 1062.03 235.25ZM988.53 201.25C1002.53 201.25 1012.28 208.5 1016.28 222H961.78C965.53 208.5 975.03 201.25 988.53 201.25ZM1158.69 168.5C1142.69 168.5 1131.19 173 1121.69 184L1114.44 169H1083.19V304H1129.69V235.5C1129.69 218.25 1136.69 211 1152.94 211H1171.19V168.5H1158.69ZM1244.16 262.75L1295.16 176.75V169H1183.66V210.25H1230.91L1179.16 297.25V304H1295.66V262.75H1244.16Z" fill="black"/>
<path d="M1323 304L1364 304L1364 263L1323 263L1323 304Z" fill="url(#paint7_linear_5513_149722)"/>
<defs>
<linearGradient id="paint0_linear_5513_149722" x1="69.761" y1="0" x2="69.761" y2="80.652" gradientUnits="userSpaceOnUse">
<stop stop-color="#00B2FF"/>
<stop offset="1" stop-color="#4FD1FF"/>
</linearGradient>
<linearGradient id="paint1_linear_5513_149722" x1="139" y1="195.5" x2="139" y2="121" gradientUnits="userSpaceOnUse">
<stop stop-color="#00B2FF"/>
<stop offset="1" stop-color="#4FD1FF"/>
</linearGradient>
<linearGradient id="paint2_linear_5513_149722" x1="69.8711" y1="241.411" x2="69.8711" y2="321.701" gradientUnits="userSpaceOnUse">
<stop stop-color="#00B2FF"/>
<stop offset="1" stop-color="#4FD1FF"/>
</linearGradient>
<linearGradient id="paint3_linear_5513_149722" x1="112.323" y1="58.8961" x2="112.241" y2="156.5" gradientUnits="userSpaceOnUse">
<stop stop-color="#009CFF"/>
<stop offset="1" stop-color="#005286"/>
</linearGradient>
<linearGradient id="paint4_linear_5513_149722" x1="154.5" y1="198.5" x2="70.0001" y2="391.5" gradientUnits="userSpaceOnUse">
<stop stop-color="#009CFF"/>
<stop offset="1" stop-color="#005286"/>
</linearGradient>
<linearGradient id="paint5_linear_5513_149722" x1="35.1481" y1="281.553" x2="35.1481" y2="401.631" gradientUnits="userSpaceOnUse">
<stop stop-color="#0048A5"/>
<stop offset="1" stop-color="#00142E"/>
</linearGradient>
<linearGradient id="paint6_linear_5513_149722" x1="69.601" y1="40.1421" x2="69.601" y2="282.099" gradientUnits="userSpaceOnUse">
<stop stop-color="#0157C1"/>
<stop offset="1" stop-color="#011D41"/>
</linearGradient>
<linearGradient id="paint7_linear_5513_149722" x1="1338.98" y1="297.653" x2="1348.31" y2="260.778" gradientUnits="userSpaceOnUse">
<stop stop-color="#009CFF"/>
<stop offset="1" stop-color="#005286"/>
</linearGradient>
</defs>
</svg>
