<svg width="500" height="963" viewBox="0 0 500 963" fill="none" xmlns="http://www.w3.org/2000/svg">
<path d="M0 96.1956L166.096 0L334.348 96.1956L167.164 193.273L0 96.1956Z" fill="url(#paint0_linear_5501_151626)"/>
<path d="M167.164 386.529L334.345 289.469L500 386.529L333.581 482.418L167.164 386.529Z" fill="url(#paint1_linear_5501_151626)"/>
<path d="M167.165 770.919L333.582 676.015L167.165 578.513L1.29199 674.706L167.165 770.919Z" fill="url(#paint2_linear_5501_151626)"/>
<path d="M167.164 193.273L334.345 96.1958V289.469L167.164 386.532V193.273Z" fill="url(#paint3_linear_5501_151626)"/>
<path d="M333.581 482.42V676.014L167.164 770.918V962.461L500 770.918V386.529L333.581 482.42Z" fill="url(#paint4_linear_5501_151626)"/>
<path d="M167.165 962.461V770.921L1.29199 674.708V867.557L167.165 962.461Z" fill="url(#paint5_linear_5501_151626)"/>
<path d="M0 96.1958L167.164 193.273V386.532L333.584 482.421V676.017L0 482.334V96.1958Z" fill="url(#paint6_linear_5501_151626)"/>
<defs>
<linearGradient id="paint0_linear_5501_151626" x1="167.174" y1="0" x2="167.174" y2="193.273" gradientUnits="userSpaceOnUse">
<stop stop-color="#00B2FF"/>
<stop offset="1" stop-color="#4FD1FF"/>
</linearGradient>
<linearGradient id="paint1_linear_5501_151626" x1="333.097" y1="468.493" x2="333.097" y2="289.962" gradientUnits="userSpaceOnUse">
<stop stop-color="#00B2FF"/>
<stop offset="1" stop-color="#4FD1FF"/>
</linearGradient>
<linearGradient id="paint2_linear_5501_151626" x1="167.438" y1="578.513" x2="167.438" y2="770.919" gradientUnits="userSpaceOnUse">
<stop stop-color="#00B2FF"/>
<stop offset="1" stop-color="#4FD1FF"/>
</linearGradient>
<linearGradient id="paint3_linear_5501_151626" x1="269.168" y1="141.138" x2="268.972" y2="375.034" gradientUnits="userSpaceOnUse">
<stop stop-color="#009CFF"/>
<stop offset="1" stop-color="#005286"/>
</linearGradient>
<linearGradient id="paint4_linear_5501_151626" x1="370.241" y1="475.681" x2="167.746" y2="938.183" gradientUnits="userSpaceOnUse">
<stop stop-color="#009CFF"/>
<stop offset="1" stop-color="#005286"/>
</linearGradient>
<linearGradient id="paint5_linear_5501_151626" x1="84.2284" y1="674.708" x2="84.2284" y2="962.461" gradientUnits="userSpaceOnUse">
<stop stop-color="#0048A5"/>
<stop offset="1" stop-color="#00142E"/>
</linearGradient>
<linearGradient id="paint6_linear_5501_151626" x1="166.791" y1="96.1958" x2="166.791" y2="676.017" gradientUnits="userSpaceOnUse">
<stop stop-color="#0157C1"/>
<stop offset="1" stop-color="#011D41"/>
</linearGradient>
</defs>
</svg>
