<svg width="26" height="24" viewBox="0 0 26 24" fill="none" xmlns="http://www.w3.org/2000/svg">
<path d="M21.9993 1.97661C20.3526 1.05522 18.5697 0.38646 16.7125 6.8359e-05C16.6962 -0.000556709 16.68 0.00311116 16.665 0.0108142C16.65 0.0185171 16.6367 0.0300682 16.6258 0.0446524C16.4029 0.535073 16.1429 1.17411 15.9696 1.66453C13.9997 1.30786 11.9964 1.30786 10.0266 1.66453C9.85324 1.15924 9.59323 0.535073 9.35798 0.0446524C9.3456 0.0149299 9.30846 6.8359e-05 9.27131 6.8359e-05C7.41412 0.38646 5.6436 1.05522 3.9845 1.97661C3.97212 1.97661 3.95974 1.99147 3.94736 2.00633C0.579648 8.05485 -0.348949 13.9399 0.109159 19.7655C0.109159 19.7952 0.12154 19.8249 0.146302 19.8398C2.37493 21.8015 4.5169 22.9904 6.6341 23.778C6.67124 23.7929 6.70839 23.778 6.72077 23.7483C7.21602 22.9309 7.66175 22.069 8.04557 21.1625C8.07033 21.103 8.04557 21.0436 7.99604 21.0287C7.29031 20.7018 6.62172 20.3154 5.96551 19.8695C5.91599 19.8398 5.91598 19.7506 5.95313 19.7061C6.08932 19.5872 6.22552 19.4534 6.36171 19.3345C6.38647 19.3048 6.42362 19.3048 6.44838 19.3197C10.7075 21.6529 15.301 21.6529 19.5106 19.3197C19.5354 19.3048 19.5725 19.3048 19.5973 19.3345C19.7335 19.4683 19.8697 19.5872 20.0059 19.7209C20.0554 19.7655 20.0554 19.8547 19.9935 19.8844C19.3497 20.3451 18.6687 20.7166 17.963 21.0436C17.9135 21.0584 17.9011 21.1327 17.9135 21.1773C18.3097 22.0839 18.7554 22.9458 19.2383 23.7632C19.2754 23.778 19.3125 23.7929 19.3497 23.778C21.4793 22.9904 23.6212 21.8015 25.8499 19.8398C25.8746 19.8249 25.887 19.7952 25.887 19.7655C26.4318 13.0334 24.9832 7.1929 22.0488 2.00633C22.0364 1.99147 22.024 1.97661 21.9993 1.97661ZM8.68939 16.2137C7.41412 16.2137 6.34933 14.8019 6.34933 13.0631C6.34933 11.3243 7.38936 9.91251 8.68939 9.91251C10.0018 9.91251 11.0418 11.3392 11.0295 13.0631C11.0295 14.8019 9.98943 16.2137 8.68939 16.2137ZM17.3192 16.2137C16.0439 16.2137 14.9791 14.8019 14.9791 13.0631C14.9791 11.3243 16.0191 9.91251 17.3192 9.91251C18.6316 9.91251 19.6716 11.3392 19.6592 13.0631C19.6592 14.8019 18.6316 16.2137 17.3192 16.2137Z" fill="white"/>
</svg>
