<svg width="12" height="10" viewBox="0 0 12 10" fill="none" xmlns="http://www.w3.org/2000/svg">
<path d="M6.22211 0L7.66663 5.26825e-08V1.42841L9.11101 1.42841V2.85696L7.66649 2.85696L7.66663 1.42841L6.22211 1.42855V0Z" fill="#525252"/>
<path d="M10.5555 7.14274V5.71419L12 5.71421V4.28566H10.5551L10.5554 2.85704L9.11101 2.85696L9.11056 4.28567L0 4.28567L1.19209e-07 5.71422L9.11056 5.71422L9.11095 7.14274H10.5555Z" fill="#525252"/>
<path d="M9.11087 8.57137L9.11095 7.14274L7.66636 7.14282V8.57137L9.11087 8.57137Z" fill="#525252"/>
<path d="M7.66649 10L7.66636 8.57137L6.22198 8.57145L6.22198 10L7.66649 10Z" fill="#525252"/>
</svg>
